<?xml version="1.0" encoding="UTF-8" standalone="no"?>
<!-- Created with Inkscape (http://www.inkscape.org/) -->

<svg
   width="256.0px"
   height="256.0px"
   viewBox="0 0 256.0 256.0"
   version="1.1"
   id="SVGRoot"
   xmlns="http://www.w3.org/2000/svg"
   xmlns:svg="http://www.w3.org/2000/svg">
  <defs
     id="defs1090" />
  <g
     id="layer1">
    <g
       transform="matrix(0.09607615,0,0,-0.09607615,-30.136927,362.0674)"
       fill="#29619e"
       stroke="none"
       id="g65180"
       style="fill:#29619e;fill-opacity:1">
      <path
         d="M 750,2731 V 2460 H 555 360 v -70 -70 h 195 195 v -225 -225 h 90 90 v 219 218 l 208,6 c 221,5 289,16 364,53 109,55 158,146 158,293 0,118 -19,172 -85,238 -41,40 -67,56 -121,74 -65,22 -88,23 -386,27 l -318,3 z m 614,108 c 86,-29 135,-113 122,-207 -9,-68 -43,-119 -95,-144 -42,-21 -62,-23 -253,-26 l -208,-3 v 201 202 l 198,-5 c 127,-3 211,-9 236,-18 z"
         id="path65164"
         style="fill:#29619e;fill-opacity:1" />
      <path
         d="m 1790.5278,2429.621 v -575 c 740.5045,8.1862 1072.9739,13.1487 1072.9739,13.1487 -14.9522,739.673 14.7459,949.2388 7.1554,1058.8692 -7.1554,103.3465 68.1653,77.3946 -1080.1293,77.9821 z m 681,490 c 150,-16 264,-123 281,-265 3,-25 2,-25 -73,-28 l -76,-3 -17,44 c -19,51 -68,100 -115,116 -44,14 -188,14 -232,0 -19,-7 -46,-23 -61,-37 -23,-21 -28,-34 -28,-73 0,-72 34,-95 228,-154 193,-60 249,-82 308,-123 106,-75 124,-230 37,-331 -71,-83 -178,-121 -343,-121 -218,0 -354,77 -400,228 -11,35 -20,75 -20,88 0,24 1,25 76,22 l 77,-3 14,-50 c 20,-68 45,-99 101,-126 62,-31 221,-34 294,-6 118,46 131,160 25,220 -23,14 -118,48 -212,76 -209,63 -269,92 -309,149 -41,59 -48,150 -16,216 43,89 145,150 280,166 36,4 79,6 95,4 17,-2 55,-6 86,-9 z"
         id="path65174"
         style="fill:#29619e;fill-opacity:1" />
    </g>
  </g>
</svg>
