<?xml version="1.0" standalone="no"?>
<!DOCTYPE svg PUBLIC "-//W3C//DTD SVG 20010904//EN"
 "http://www.w3.org/TR/2001/REC-SVG-20010904/DTD/svg10.dtd">
<svg version="1.0" xmlns="http://www.w3.org/2000/svg"
 width="554.000000pt" height="352.000000pt" viewBox="0 0 554.000000 352.000000"
 preserveAspectRatio="xMidYMid meet">

<g transform="translate(0.000000,352.000000) scale(0.100000,-0.100000)"
fill="#29619e" stroke="none">
<path d="M750 2731 l0 -271 -195 0 -195 0 0 -70 0 -70 195 0 195 0 0 -225 0
-225 90 0 90 0 0 219 0 218 208 6 c221 5 289 16 364 53 109 55 158 146 158
293 0 118 -19 172 -85 238 -41 40 -67 56 -121 74 -65 22 -88 23 -386 27 l-318
3 0 -270z m614 108 c86 -29 135 -113 122 -207 -9 -68 -43 -119 -95 -144 -42
-21 -62 -23 -253 -26 l-208 -3 0 201 0 202 198 -5 c127 -3 211 -9 236 -18z"/>
<path d="M1740 2436 l0 -566 85 0 85 0 0 235 0 235 198 0 c205 -1 251 -8 294
-47 32 -28 55 -91 62 -168 11 -106 25 -183 43 -221 l17 -34 99 0 98 0 -20 27
c-29 36 -48 109 -61 233 -16 144 -32 192 -82 234 -22 19 -53 38 -69 41 -39 9
-37 18 7 34 43 15 109 73 129 112 62 119 25 295 -78 373 -19 15 -61 37 -93 49
-55 20 -79 22 -386 25 l-328 3 0 -565z m645 394 c83 -41 117 -139 80 -228 -42
-99 -95 -117 -355 -117 l-195 0 -3 175 c-1 96 0 181 3 188 4 12 43 13 213 11
197 -4 209 -5 257 -29z"/>
<path d="M2790 2435 l0 -565 90 0 90 0 0 565 0 565 -90 0 -90 0 0 -565z"/>
<path d="M3110 2435 l0 -565 90 0 90 0 0 426 c0 240 4 423 9 420 5 -3 145
-195 312 -426 l304 -420 87 0 88 0 0 565 0 565 -90 0 -90 0 0 -421 c0 -336 -3
-419 -12 -411 -7 6 -146 195 -308 421 l-295 410 -92 0 -93 1 0 -565z"/>
<path d="M4130 2930 l0 -70 200 0 200 0 0 -495 0 -495 90 0 90 0 0 495 0 495
195 0 195 0 0 70 0 70 -485 0 -485 0 0 -70z"/>
<path d="M750 1195 l0 -575 1980 0 1980 0 0 575 0 575 -1980 0 -1980 0 0 -575z
m681 490 c150 -16 264 -123 281 -265 3 -25 2 -25 -73 -28 l-76 -3 -17 44 c-19
51 -68 100 -115 116 -44 14 -188 14 -232 0 -19 -7 -46 -23 -61 -37 -23 -21
-28 -34 -28 -73 0 -72 34 -95 228 -154 193 -60 249 -82 308 -123 106 -75 124
-230 37 -331 -71 -83 -178 -121 -343 -121 -218 0 -354 77 -400 228 -11 35 -20
75 -20 88 0 24 1 25 76 22 l77 -3 14 -50 c20 -68 45 -99 101 -126 62 -31 221
-34 294 -6 118 46 131 160 25 220 -23 14 -118 48 -212 76 -209 63 -269 92
-309 149 -41 59 -48 150 -16 216 43 89 145 150 280 166 36 4 79 6 95 4 17 -2
55 -6 86 -9z m1919 -12 c81 -22 144 -59 201 -120 180 -191 172 -550 -18 -723
-91 -83 -195 -120 -341 -120 -245 0 -418 137 -468 368 -55 262 64 507 286 587
93 34 234 37 340 8z m-1390 -193 l0 -200 255 0 255 0 2 198 3 197 78 3 77 3 0
-476 0 -475 -80 0 -80 0 0 210 0 210 -255 0 -255 0 0 -210 0 -210 -80 0 -80 0
0 468 c0 258 3 472 7 475 3 4 39 7 80 7 l73 0 0 -200z m2384 176 c148 -53 212
-167 186 -328 -14 -80 -47 -135 -104 -172 -72 -47 -127 -58 -323 -63 l-183 -6
0 -178 0 -179 -80 0 -80 0 0 468 c0 258 3 472 8 476 4 5 124 6 267 4 216 -4
268 -8 309 -22z"/>
<path d="M3110 1546 c-74 -16 -110 -37 -157 -90 -81 -92 -107 -266 -62 -411
17 -55 31 -78 73 -120 64 -65 126 -88 235 -87 107 0 177 28 235 93 63 70 81
129 81 264 0 133 -18 193 -77 260 -50 56 -96 81 -179 95 -76 12 -79 12 -149
-4z"/>
<path d="M3920 1385 l0 -168 168 5 c185 5 226 16 266 71 30 40 30 144 0 184
-40 55 -81 66 -266 71 l-168 5 0 -168z"/>
</g>
</svg>
